<svg width="60" height="60" viewBox="0 0 60 60" fill="none" xmlns="http://www.w3.org/2000/svg">
<circle cx="30" cy="30" r="30" transform="rotate(180 30 30)" fill="#22A699"/>
<path d="M25.0372 42.2962C24.6935 41.9524 24.5004 41.4861 24.5004 41C24.5004 40.5139 24.6935 40.0476 25.0372 39.7038L34.741 30L25.0372 20.2962C24.7032 19.9504 24.5184 19.4873 24.5226 19.0066C24.5268 18.5259 24.7196 18.0661 25.0595 17.7262C25.3994 17.3863 25.8592 17.1934 26.3399 17.1893C26.8206 17.1851 27.2837 17.3699 27.6295 17.7038L38.6295 28.7038C38.9732 29.0476 39.1663 29.5139 39.1663 30C39.1663 30.4861 38.9732 30.9524 38.6295 31.2962L27.6295 42.2962C27.2857 42.6399 26.8195 42.8329 26.3333 42.8329C25.8472 42.8329 25.381 42.6399 25.0372 42.2962Z" fill="white"/>
</svg>
