<svg width="60" height="60" viewBox="0 0 60 60" fill="none" xmlns="http://www.w3.org/2000/svg">
<circle cx="30" cy="30" r="30" fill="#22A699"/>
<path d="M34.9628 17.7038C35.3065 18.0476 35.4996 18.5139 35.4996 19C35.4996 19.4861 35.3065 19.9524 34.9628 20.2962L25.259 30L34.9628 39.7038C35.2968 40.0496 35.4816 40.5127 35.4774 40.9934C35.4732 41.4741 35.2804 41.9339 34.9405 42.2738C34.6006 42.6137 34.1408 42.8066 33.6601 42.8107C33.1794 42.8149 32.7163 42.6301 32.3705 42.2962L21.3705 31.2962C21.0268 30.9524 20.8337 30.4861 20.8337 30C20.8337 29.5139 21.0268 29.0476 21.3705 28.7038L32.3705 17.7038C32.7143 17.3601 33.1805 17.1671 33.6667 17.1671C34.1528 17.1671 34.619 17.3601 34.9628 17.7038Z" fill="white"/>
</svg>
